<?xml version="1.0" encoding="utf-8"?>
<!-- Generator: Adobe Illustrator 16.0.0, SVG Export Plug-In . SVG Version: 6.00 Build 0)  -->
<!DOCTYPE svg PUBLIC "-//W3C//DTD SVG 1.0//EN" "http://www.w3.org/TR/2001/REC-SVG-20010904/DTD/svg10.dtd" [
	<!ENTITY ns_flows "http://ns.adobe.com/Flows/1.0/">
	<!ENTITY ns_extend "http://ns.adobe.com/Extensibility/1.0/">
	<!ENTITY ns_ai "http://ns.adobe.com/AdobeIllustrator/10.0/">
	<!ENTITY ns_graphs "http://ns.adobe.com/Graphs/1.0/">
]>
<svg version="1.0" id="Layer_1" xmlns:x="&ns_extend;" xmlns:i="&ns_ai;" xmlns:graph="&ns_graphs;"
	 xmlns="http://www.w3.org/2000/svg" xmlns:xlink="http://www.w3.org/1999/xlink" xmlns:a="http://ns.adobe.com/AdobeSVGViewerExtensions/3.0/"
	 x="0px" y="0px" width="512px" height="512px" viewBox="0 0 512 512" enable-background="new 0 0 512 512" xml:space="preserve">
<g id="Shape_2_xA0_Image_1_">
	<polygon fill="#00AEEF" points="430.458,1.991 430.458,298.473 375.843,298.473 375.843,169.572 300.62,169.572 300.62,298.473 
		254.568,298.473 254.568,98.31 247.185,114.4 234.677,141.619 225.563,161.42 216.779,180.494 178.364,180.494 142.38,102.226 
		142.38,298.473 87.764,298.473 87.764,1.991 152.339,1.991 153.765,5.119 153.765,5.222 163.806,27.086 167.003,34.062 
		167.61,35.367 172.944,46.986 198.691,102.982 198.719,102.951 198.747,102.875 220.312,55.961 223.484,49.052 224.444,46.986 
		241.789,9.246 241.789,7.87 244.5,1.991 300.62,1.991 300.62,109.13 375.843,109.13 375.843,1.991 	"/>
</g>
<g id="Layer_22">
	<g>
		<path fill="#010101" d="M98.786,467.854H80.37v-80.652c0-8.704,0.228-18.322,0.692-28.861h-0.464
			c-0.96,8.279-1.83,14.231-2.591,17.863L58.61,467.846H43.378l-19.738-90.701c-0.538-2.445-1.404-8.709-2.598-18.799h-0.518
			c0.503,13.286,0.754,24.939,0.754,34.966v74.534H4.486V333.063h27.298l16.914,79.891c1.343,6.394,2.329,12.823,2.942,19.276h0.349
			c1.038-7.468,2.133-13.951,3.289-19.464l16.911-79.703h26.612L98.786,467.854L98.786,467.854z"/>
		<path fill="#010101" d="M189.22,467.854h-18.697v-54.892h-34.279v54.892h-18.641V333.067h18.641v53.759h34.279v-53.759h18.697
			V467.854z"/>
		<path fill="#010101" d="M238.511,426.872h-31.571v-20.771h31.571V426.872z"/>
		<path fill="#010101" d="M252.125,462.682v-30.076c3.347,4.577,6.987,8.007,10.91,10.291c3.919,2.293,7.886,3.431,11.893,3.431
			c2.344,0,4.393-0.344,6.145-1.036c1.746-0.693,3.21-1.651,4.385-2.867c1.176-1.225,2.049-2.659,2.626-4.324
			c0.577-1.664,0.866-3.467,0.866-5.402c0-2.632-0.464-4.98-1.389-7.05c-0.928-2.067-2.186-3.985-3.783-5.732
			c-1.595-1.757-3.488-3.444-5.681-5.081c-2.193-1.637-4.561-3.289-7.104-4.985c-6.458-4.38-11.279-9.741-14.45-16.074
			c-3.176-6.329-4.765-13.966-4.765-22.931c0-7.018,0.864-13.049,2.597-18.103c1.732-5.035,4.086-9.19,7.07-12.446
			c2.983-3.256,6.431-5.655,10.355-7.191s8.076-2.302,12.468-2.302c4.31,0,8.132,0.421,11.458,1.27
			c3.323,0.85,6.393,2.151,9.204,3.903v28.104c-1.386-1.568-2.895-2.954-4.53-4.142c-1.636-1.188-3.319-2.175-5.052-2.958
			c-1.732-0.785-3.45-1.362-5.169-1.743c-1.708-0.366-3.337-0.56-4.873-0.56c-2.117,0-4.041,0.33-5.773,0.99
			c-1.732,0.656-3.189,1.578-4.385,2.771c-1.197,1.192-2.117,2.624-2.771,4.274c-0.656,1.655-0.983,3.522-0.983,5.591
			c0,2.251,0.368,4.278,1.1,6.067c0.729,1.788,1.767,3.477,3.121,5.077c1.348,1.601,2.977,3.164,4.904,4.696
			c1.925,1.541,4.1,3.118,6.526,4.751c3.302,2.252,6.278,4.654,8.914,7.19c2.633,2.536,4.895,5.398,6.785,8.6
			c1.879,3.196,3.322,6.847,4.329,10.952c0.997,4.1,1.496,8.889,1.496,14.331c0,7.525-0.87,13.832-2.626,18.941
			c-1.749,5.113-4.124,9.246-7.124,12.405c-3.001,3.164-6.489,5.439-10.476,6.815c-3.983,1.376-8.187,2.067-12.609,2.067
			c-4.54,0-8.86-0.637-12.956-1.88C258.68,467.065,255.124,465.189,252.125,462.682z"/>
		<path fill="#010101" d="M353.181,466.727c-2.694,2.316-6.749,3.476-12.179,3.476c-12.847,0-19.273-10.868-19.273-32.617v-44.082
			h-9.581v-21.898h9.581v-20.771l18.181-8.467v29.237h13.271v21.898h-13.271v38.91c0,10.03,2.439,15.043,7.334,15.043
			c1.921,0,3.896-0.903,5.938-2.725V466.727L353.181,466.727z"/>
		<path fill="#010101" d="M419.723,371.604l-24.002,103.956c-5.773,24.998-14.469,37.5-26.092,37.5
			c-4.42,0-8.056-0.821-10.908-2.445v-23.691c2.427,2.315,5.06,3.48,7.908,3.48c4.694,0,7.963-3.608,9.813-10.813l3.116-11.938
			l-24.005-96.058h20.2l11.025,58.558c0.688,3.637,1.23,7.928,1.615,12.878h0.227c0.352-3.629,0.982-7.865,1.907-12.687
			l11.136-58.749L419.723,371.604L419.723,371.604z"/>
		<path fill="#010101" d="M445.292,467.854h-18.239V325.362h18.239V467.854z"/>
		<path fill="#010101" d="M513.743,428.189h-38.552c0.611,13.973,6.014,20.958,16.21,20.958c6.506,0,12.224-2.5,17.146-7.518v21.428
			c-5.464,4.76-12.563,7.145-21.3,7.145c-9.54,0-16.946-4.306-22.219-12.923c-5.269-8.622-7.901-20.639-7.901-36.048
			c0-15.974,2.847-28.637,8.544-37.974c5.691-9.337,12.692-14.001,21.009-14.001c8.609,0,15.282,4.173,19.998,12.501
			c4.708,8.334,7.073,19.648,7.073,33.934L513.743,428.189L513.743,428.189z M496.824,409.954c0-13.791-3.418-20.679-10.269-20.679
			c-2.925,0-5.453,1.972-7.592,5.925c-2.124,3.944-3.43,8.87-3.89,14.758h21.75V409.954z"/>
	</g>
</g>
</svg>
