<?xml version="1.0" encoding="utf-8"?>
<!-- Generator: Adobe Illustrator 16.0.0, SVG Export Plug-In . SVG Version: 6.00 Build 0)  -->
<!DOCTYPE svg PUBLIC "-//W3C//DTD SVG 1.0//EN" "http://www.w3.org/TR/2001/REC-SVG-20010904/DTD/svg10.dtd" [
	<!ENTITY ns_flows "http://ns.adobe.com/Flows/1.0/">
	<!ENTITY ns_extend "http://ns.adobe.com/Extensibility/1.0/">
	<!ENTITY ns_ai "http://ns.adobe.com/AdobeIllustrator/10.0/">
	<!ENTITY ns_graphs "http://ns.adobe.com/Graphs/1.0/">
]>
<svg version="1.0" xmlns:x="&ns_extend;" xmlns:i="&ns_ai;" xmlns:graph="&ns_graphs;"
	 xmlns="http://www.w3.org/2000/svg" xmlns:xlink="http://www.w3.org/1999/xlink" xmlns:a="http://ns.adobe.com/AdobeSVGViewerExtensions/3.0/"
	 x="0px" y="0px" width="612px" height="200px" viewBox="0 0 612 200" enable-background="new 0 0 612 200" xml:space="preserve">
<g id="Layer_1">
</g>
<g id="Layer_2">
	<polygon fill="#008CD1" points="270,0.5 270,199.5 226.969,199.5 226.969,112.979 167.704,112.979 167.704,199.5 131.42,199.5 
		131.42,65.148 125.601,75.947 115.748,94.221 108.569,107.51 101.648,120.315 71.382,120.315 43.031,67.779 43.031,199.5 0,199.5 
		0,0.5 50.878,0.5 52,2.6 52,2.669 59.911,17.342 62.434,22.027 62.909,22.903 67.112,30.701 87.398,68.286 87.42,68.264 
		87.441,68.218 104.429,36.725 106.931,32.086 107.686,30.701 121.353,5.368 121.353,4.445 123.487,0.5 167.704,0.5 167.704,72.416 
		226.969,72.416 226.969,0.5 	"/>
	<g>
		<path d="M331.798,96.18H280V74.46h51.798V96.18z"/>
		<path d="M367.342,103.929c0.497,4.438,1.355,8.279,2.574,11.515c1.221,3.239,2.709,5.933,4.467,8.077
			c1.758,2.146,3.732,3.729,5.925,4.748c2.19,1.02,4.508,1.528,6.948,1.528c2.479,0,4.745-0.438,6.791-1.311
			c2.049-0.873,3.806-2.128,5.274-3.765c1.467-1.637,2.594-3.639,3.38-6.003c0.785-2.364,1.179-5.003,1.179-7.914
			c0-2.908-0.383-5.419-1.147-7.53c-0.766-2.109-2.017-3.966-3.754-5.566c-1.737-1.599-4.011-3.092-6.823-4.475
			c-2.812-1.381-6.265-2.838-10.359-4.366c-4.673-1.747-8.705-3.836-12.097-6.275c-3.391-2.438-6.173-5.311-8.344-8.623
			c-2.171-3.311-3.773-7.149-4.807-11.515c-1.035-4.366-1.552-9.386-1.552-15.063c0-6.039,0.725-11.623,2.171-16.753
			c1.448-5.13,3.485-9.55,6.111-13.261s5.78-6.604,9.459-8.677c3.681-2.074,7.755-3.111,12.222-3.111s8.561,1.037,12.281,3.111
			c3.723,2.073,6.979,5.039,9.771,8.895c2.791,3.858,5.035,8.605,6.73,14.244c1.694,5.638,2.729,11.989,3.102,19.045h-14.888
			c-1.737-13.679-7.259-20.519-16.563-20.519c-4.963,0-8.757,1.474-11.383,4.42c-2.626,2.947-3.938,6.968-3.938,12.06
			c0,2.112,0.289,3.948,0.867,5.513c0.58,1.565,1.5,2.984,2.761,4.256c1.263,1.273,2.875,2.455,4.839,3.547
			c1.965,1.091,4.353,2.146,7.165,3.165c2.44,0.946,4.951,1.948,7.537,3.001c2.585,1.055,5.106,2.347,7.568,3.875
			c2.46,1.527,4.786,3.366,6.978,5.512c2.192,2.146,4.116,4.785,5.771,7.912c1.654,3.129,2.956,6.806,3.906,11.024
			c0.952,4.22,1.427,9.131,1.427,14.734c0,6.621-0.773,12.679-2.325,18.173c-1.552,5.495-3.712,10.223-6.482,14.188
			c-2.771,3.967-6.048,7.058-9.832,9.277c-3.783,2.219-7.93,3.328-12.438,3.328c-5.624,0-10.567-1.218-14.826-3.655
			c-4.26-2.438-7.848-5.876-10.763-10.315c-2.915-4.437-5.19-9.75-6.823-15.935c-1.634-6.183-2.637-13.024-3.009-20.52H367.342z"/>
		<path d="M458.53,152.28c-1.86,0.8-3.566,1.381-5.117,1.747c-1.552,0.363-2.988,0.545-4.312,0.545
			c-3.433,0-6.173-0.709-8.219-2.128c-2.048-1.419-3.608-3.529-4.685-6.331c-1.074-2.799-1.768-6.312-2.078-10.532
			c-0.311-4.219-0.465-9.13-0.465-14.734V69.439h-6.698v-21.61h6.698V21.853h14.765v25.977h8.809v21.61h-8.809v52.171
			c0,2.401,0.062,4.33,0.187,5.785c0.123,1.457,0.299,2.583,0.526,3.383c0.228,0.802,0.517,1.329,0.868,1.583
			c0.353,0.256,0.755,0.382,1.21,0.382c0.91,0,1.984-0.126,3.226-0.382c1.24-0.254,2.605-0.6,4.094-1.037V152.28z"/>
		<path d="M495.937,149.333c-1.324,6.113-2.658,11.896-4.002,17.354c-1.344,5.457-2.854,10.241-4.527,14.352
			c-1.675,4.112-3.598,7.368-5.769,9.77s-4.768,3.602-7.785,3.602c-1.407,0-2.834-0.183-4.28-0.547
			c-1.448-0.363-2.979-1.017-4.592-1.963v-24.448c1.943,1.381,3.464,2.198,4.56,2.455c1.097,0.255,1.976,0.383,2.637,0.383
			c0.868,0,1.757-0.565,2.667-1.692c0.91-1.13,1.799-2.692,2.668-4.694c0.868-2.001,1.706-4.349,2.513-7.038
			c0.806-2.693,1.54-5.639,2.202-8.841L460.701,47.829h15.819l12.654,65.596l12.654-65.596h15.881L495.937,149.333z"/>
		<path d="M542.461,152.062h-14.516V7.991h14.516V152.062z"/>
		<path d="M610.945,119.428c-0.744,5.676-1.912,10.695-3.505,15.062s-3.515,8.041-5.769,11.023
			c-2.254,2.985-4.797,5.239-7.631,6.768c-2.832,1.527-5.861,2.292-9.087,2.292c-4.344,0-8.302-1.238-11.88-3.711
			c-3.577-2.473-6.647-6.058-9.212-10.751s-4.549-10.423-5.954-17.189c-1.407-6.768-2.109-14.444-2.109-23.03
			c0-8.44,0.683-16.025,2.046-22.756c1.365-6.73,3.289-12.459,5.771-17.191c2.479-4.729,5.438-8.349,8.869-10.859
			c3.434-2.51,7.237-3.765,11.415-3.765c4.3,0,8.177,1.238,11.63,3.711c3.453,2.474,6.4,6.04,8.84,10.696
			c2.44,4.657,4.322,10.369,5.646,17.136C611.339,83.628,612,91.306,612,99.891v8.187h-40.817
			c0.744,8.224,2.347,14.391,4.807,18.499c2.462,4.112,5.448,6.167,8.965,6.167c1.116,0,2.242-0.289,3.38-0.873
			c1.138-0.582,2.192-1.436,3.164-2.564s1.819-2.511,2.543-4.148c0.725-1.637,1.251-3.547,1.582-5.729H610.945z M596.244,86.357
			c-0.952-6.402-2.502-11.204-4.652-14.408c-2.151-3.201-4.715-4.802-7.692-4.802c-2.937,0-5.501,1.601-7.692,4.802
			c-2.192,3.204-3.764,8.006-4.714,14.408H596.244z"/>
	</g>
</g>
</svg>
